<svg xmlns="http://www.w3.org/2000/svg" viewBox="0 0 1024 1024" role="img" aria-labelledby="title desc">
  <title id="title">AreaMatrix V2 App Icon</title>
  <desc id="desc">A distinctive AreaMatrix icon showing a trace atlas: local archive, matrix cells, and a connected import path.</desc>
  <defs>
    <linearGradient id="iconBg" x1="120" y1="80" x2="900" y2="980" gradientUnits="userSpaceOnUse">
      <stop offset="0" stop-color="#F5FCF6"/>
      <stop offset="0.55" stop-color="#EAF7F1"/>
      <stop offset="1" stop-color="#DDF1EA"/>
    </linearGradient>
    <linearGradient id="ink" x1="228" y1="226" x2="804" y2="806" gradientUnits="userSpaceOnUse">
      <stop offset="0" stop-color="#173A33"/>
      <stop offset="1" stop-color="#0A201E"/>
    </linearGradient>
    <linearGradient id="trace" x1="240" y1="734" x2="720" y2="250" gradientUnits="userSpaceOnUse">
      <stop offset="0" stop-color="#15B49F"/>
      <stop offset="0.52" stop-color="#37CAB6"/>
      <stop offset="0.78" stop-color="#F1B84E"/>
      <stop offset="1" stop-color="#E96D5A"/>
    </linearGradient>
    <filter id="shadow" x="-20%" y="-20%" width="140%" height="150%">
      <feDropShadow dx="0" dy="28" stdDeviation="34" flood-color="#0A201E" flood-opacity="0.18"/>
    </filter>
    <filter id="smallShadow" x="-20%" y="-20%" width="140%" height="150%">
      <feDropShadow dx="0" dy="10" stdDeviation="12" flood-color="#0A201E" flood-opacity="0.12"/>
    </filter>
  </defs>
  <rect width="1024" height="1024" rx="214" fill="url(#ink)"/>
  <g transform="translate(512 512) scale(1.34) translate(-512 -512)">
    <rect x="292" y="306" width="440" height="440" rx="94" fill="#F8FCF8"/>

    <g opacity="0.96" fill="#CFE3DD">
      <circle cx="386" cy="404" r="30"/>
      <circle cx="512" cy="404" r="30"/>
      <circle cx="638" cy="404" r="30"/>
      <circle cx="386" cy="530" r="30"/>
      <circle cx="512" cy="530" r="30"/>
      <circle cx="638" cy="530" r="30"/>
      <circle cx="386" cy="656" r="30"/>
      <circle cx="512" cy="656" r="30"/>
      <circle cx="638" cy="656" r="30"/>
    </g>

    <path d="M220 706C342 548 472 476 606 494C704 507 775 568 824 640" fill="none" stroke="#C7DCD6" stroke-width="38" stroke-linecap="round" stroke-linejoin="round"/>
    <path d="M220 736C364 722 470 626 520 456C550 354 630 290 770 246" fill="none" stroke="url(#trace)" stroke-width="84" stroke-linecap="round" stroke-linejoin="round"/>
    <path d="M394 660H668" stroke="#16B7A2" stroke-width="68" stroke-linecap="round"/>

    <circle cx="220" cy="736" r="48" fill="#15B49F" filter="url(#smallShadow)"/>
    <circle cx="520" cy="456" r="54" fill="#F1B84E" filter="url(#smallShadow)"/>
    <circle cx="770" cy="246" r="46" fill="#E96D5A" filter="url(#smallShadow)"/>
    <circle cx="668" cy="660" r="40" fill="#173A33"/>
  </g>
</svg>
