<svg xmlns="http://www.w3.org/2000/svg" viewBox="0 0 1024 1024" role="img" aria-labelledby="title desc">
  <title id="title">AreaMatrix V2 App Icon</title>
  <desc id="desc">A distinctive AreaMatrix icon showing a trace atlas: local archive, matrix cells, and a connected import path.</desc>
  <defs>
    <linearGradient id="ink" x1="228" y1="226" x2="804" y2="806" gradientUnits="userSpaceOnUse">
      <stop offset="0" stop-color="#173A33"/>
      <stop offset="1" stop-color="#0A201E"/>
    </linearGradient>
    <linearGradient id="trace" x1="240" y1="734" x2="720" y2="250" gradientUnits="userSpaceOnUse">
      <stop offset="0" stop-color="#15B49F"/>
      <stop offset="0.52" stop-color="#37CAB6"/>
      <stop offset="0.78" stop-color="#F1B84E"/>
      <stop offset="1" stop-color="#E96D5A"/>
    </linearGradient>
    <filter id="shadow" x="-20%" y="-20%" width="140%" height="150%">
      <feDropShadow dx="0" dy="28" stdDeviation="34" flood-color="#0A201E" flood-opacity="0.18"/>
    </filter>
    <filter id="smallShadow" x="-20%" y="-20%" width="140%" height="150%">
      <feDropShadow dx="0" dy="10" stdDeviation="12" flood-color="#0A201E" flood-opacity="0.12"/>
    </filter>
  </defs>
  <g filter="url(#shadow)">
    <path d="M262 706L350 404C363 360 403 330 449 330H746C799 330 842 373 842 426V700C842 753 799 796 746 796H350C289 796 244 767 262 706Z" fill="url(#ink)"/>
    <path d="M330 660L400 432C409 404 435 384 464 384H714C746 384 772 410 772 442V668C772 700 746 726 714 726H382C344 726 319 696 330 660Z" fill="#F8FCF8"/>

    <g opacity="0.96" fill="#CFE3DD">
      <circle cx="455" cy="459" r="28"/>
      <circle cx="557" cy="459" r="28"/>
      <circle cx="659" cy="459" r="28"/>
      <circle cx="415" cy="561" r="28"/>
      <circle cx="517" cy="561" r="28"/>
      <circle cx="619" cy="561" r="28"/>
      <circle cx="375" cy="663" r="28"/>
      <circle cx="477" cy="663" r="28"/>
      <circle cx="579" cy="663" r="28"/>
    </g>

    <path d="M256 740C357 584 468 493 590 471C685 454 751 500 824 600" fill="none" stroke="#C7DCD6" stroke-width="34" stroke-linecap="round" stroke-linejoin="round"/>
    <path d="M256 740C403 733 495 642 536 470C557 380 622 326 732 304" fill="none" stroke="url(#trace)" stroke-width="78" stroke-linecap="round" stroke-linejoin="round"/>
    <path d="M440 658H680" stroke="#16B7A2" stroke-width="62" stroke-linecap="round"/>

    <circle cx="256" cy="740" r="43" fill="#15B49F" filter="url(#smallShadow)"/>
    <circle cx="536" cy="470" r="49" fill="#F1B84E" filter="url(#smallShadow)"/>
    <circle cx="732" cy="304" r="42" fill="#E96D5A" filter="url(#smallShadow)"/>
    <circle cx="680" cy="658" r="35" fill="#173A33"/>
  </g>
</svg>
