<svg xmlns="http://www.w3.org/2000/svg" viewBox="0 0 1600 520" role="img" aria-labelledby="title desc">
  <title id="title">AreaMatrix Logo Lockup Light</title>
  <desc id="desc">The light AreaMatrix lockup with the light app icon design and wordmark.</desc>
  <defs>
    <linearGradient id="surface" x1="0" y1="0" x2="420" y2="420" gradientUnits="userSpaceOnUse">
      <stop offset="0" stop-color="#FBFEFA"/>
      <stop offset="0.58" stop-color="#F0FAF5"/>
      <stop offset="1" stop-color="#E1F2EA"/>
    </linearGradient>
    <linearGradient id="panel" x1="120" y1="126" x2="300" y2="306" gradientUnits="userSpaceOnUse">
      <stop offset="0" stop-color="#FFFFFF"/>
      <stop offset="1" stop-color="#F3FBF7"/>
    </linearGradient>
    <linearGradient id="trace" x1="98" y1="301" x2="295" y2="103" gradientUnits="userSpaceOnUse">
      <stop offset="0" stop-color="#15B49F"/>
      <stop offset="0.52" stop-color="#37CAB6"/>
      <stop offset="0.78" stop-color="#F1B84E"/>
      <stop offset="1" stop-color="#E96D5A"/>
    </linearGradient>
    <filter id="shadow" x="-20%" y="-20%" width="140%" height="150%">
      <feDropShadow dx="0" dy="14" stdDeviation="18" flood-color="#000000" flood-opacity="0.28"/>
    </filter>
  </defs>

  <g transform="translate(90 50)" filter="url(#shadow)">
    <rect x="0" y="0" width="420" height="420" rx="88" fill="url(#surface)" stroke="#BFD8D1" stroke-width="3"/>
    <g transform="translate(210 210) scale(1.34) translate(-210 -210)">
      <rect x="120" y="126" width="180" height="180" rx="39" fill="url(#panel)" stroke="#BFD8D1" stroke-width="5"/>

      <g opacity="0.96" fill="#CFE3DD">
        <circle cx="158" cy="166" r="12"/>
        <circle cx="210" cy="166" r="12"/>
        <circle cx="262" cy="166" r="12"/>
        <circle cx="158" cy="217" r="12"/>
        <circle cx="210" cy="217" r="12"/>
        <circle cx="262" cy="217" r="12"/>
        <circle cx="158" cy="269" r="12"/>
        <circle cx="210" cy="269" r="12"/>
        <circle cx="262" cy="269" r="12"/>
      </g>

      <path d="M90 290C140 225 194 195 249 203C289 209 318 233 338 263" fill="none" stroke="#BFD8D1" stroke-width="16" stroke-linecap="round" stroke-linejoin="round"/>
      <path d="M90 302C149 296 193 257 213 187C226 145 258 119 316 101" fill="none" stroke="url(#trace)" stroke-width="34" stroke-linecap="round" stroke-linejoin="round"/>
      <path d="M162 271H274" stroke="#16B7A2" stroke-width="28" stroke-linecap="round"/>

      <circle cx="90" cy="302" r="20" fill="#15B49F"/>
      <circle cx="213" cy="187" r="22" fill="#F1B84E"/>
      <circle cx="316" cy="101" r="19" fill="#E96D5A"/>
      <circle cx="274" cy="271" r="16" fill="#173A33"/>
    </g>
  </g>

  <g transform="translate(588 0)">
    <text x="0" y="252"
      font-family="Inter, SF Pro Display, Segoe UI, Helvetica Neue, Arial, sans-serif"
      font-size="112"
      font-weight="760"
      letter-spacing="0"
      fill="#F4FBF8">Area</text>
    <text x="238" y="252"
      font-family="Inter, SF Pro Display, Segoe UI, Helvetica Neue, Arial, sans-serif"
      font-size="112"
      font-weight="760"
      letter-spacing="0"
      fill="#20C8B2">Matrix</text>
    <path d="M4 306H604" stroke="#2F5F57" stroke-width="11" stroke-linecap="round"/>
    <path d="M4 306C146 306 224 294 302 286C392 277 480 288 604 306" fill="none" stroke="#20C8B2" stroke-width="11" stroke-linecap="round"/>
    <circle cx="226" cy="306" r="10" fill="#F1B84E"/>
    <circle cx="604" cy="306" r="10" fill="#F4FBF8"/>
  </g>
</svg>
