<svg xmlns="http://www.w3.org/2000/svg" viewBox="0 0 1600 520" role="img" aria-labelledby="title desc">
  <title id="title">AreaMatrix Logo Lockup</title>
  <desc id="desc">AreaMatrix logo mark paired with the AreaMatrix wordmark.</desc>
  <defs>
    <linearGradient id="folder" x1="62" y1="96" x2="398" y2="408" gradientUnits="userSpaceOnUse">
      <stop offset="0" stop-color="#173A33"/>
      <stop offset="1" stop-color="#0B201D"/>
    </linearGradient>
    <linearGradient id="path" x1="136" y1="334" x2="284" y2="216" gradientUnits="userSpaceOnUse">
      <stop offset="0" stop-color="#1AAE98"/>
      <stop offset="0.62" stop-color="#38C7B2"/>
      <stop offset="1" stop-color="#F0B64A"/>
    </linearGradient>
    <linearGradient id="matrixText" x1="760" y1="176" x2="1150" y2="344" gradientUnits="userSpaceOnUse">
      <stop offset="0" stop-color="#173A33"/>
      <stop offset="1" stop-color="#1AAE98"/>
    </linearGradient>
    <filter id="softShadow" x="-20%" y="-20%" width="140%" height="150%">
      <feDropShadow dx="0" dy="10" stdDeviation="16" flood-color="#0B201D" flood-opacity="0.15"/>
    </filter>
  </defs>

  <rect width="1600" height="520" rx="0" fill="#FFFFFF"/>

  <g transform="translate(64 62)" filter="url(#softShadow)">
    <path
      d="M56 84C56 60.8 74.8 42 98 42H190C205.1 42 219.3 48.8 228.9 60.2L260.5 98H390C413.2 98 432 116.8 432 140V338C432 372.2 404.2 400 370 400H118C83.8 400 56 372.2 56 338V84Z"
      fill="url(#folder)"/>
    <path
      d="M86 158C86 133.1 106.1 113 131 113H393C417.9 113 438 133.1 438 158V338C438 371.1 411.1 398 378 398H118C84.9 398 58 371.1 58 338V186C58 170.5 70.5 158 86 158Z"
      fill="#1E4B43" opacity="0.5"/>
    <rect x="102" y="152" width="288" height="206" rx="34" fill="#F9FCF9"/>

    <g opacity="0.9">
      <path d="M150 296L196 218L238 296L284 218L334 296" fill="none" stroke="#B9CBC5" stroke-width="8" stroke-linecap="round" stroke-linejoin="round"/>
      <path d="M150 296H334" fill="none" stroke="#D6E3DF" stroke-width="7" stroke-linecap="round"/>
      <path d="M196 218H284" fill="none" stroke="#D6E3DF" stroke-width="7" stroke-linecap="round"/>
    </g>

    <g fill="#D7E8E2">
      <rect x="130" y="190" width="31" height="31" rx="9"/>
      <rect x="191" y="190" width="31" height="31" rx="9"/>
      <rect x="252" y="190" width="31" height="31" rx="9"/>
      <rect x="313" y="190" width="31" height="31" rx="9"/>
      <rect x="130" y="254" width="31" height="31" rx="9"/>
      <rect x="313" y="254" width="31" height="31" rx="9"/>
      <rect x="130" y="318" width="31" height="31" rx="9"/>
      <rect x="191" y="318" width="31" height="31" rx="9"/>
      <rect x="252" y="318" width="31" height="31" rx="9"/>
      <rect x="313" y="318" width="31" height="31" rx="9"/>
    </g>

    <path
      d="M142 334L211 216C217 205.7 232 205.7 238 216L307 334M180 285H270"
      fill="none"
      stroke="url(#path)"
      stroke-width="32"
      stroke-linecap="round"
      stroke-linejoin="round"/>

    <circle cx="211" cy="216" r="18" fill="#F0B64A"/>
    <circle cx="142" cy="334" r="15" fill="#1AAE98"/>
    <circle cx="307" cy="334" r="15" fill="#38C7B2"/>
    <circle cx="270" cy="285" r="11" fill="#173A33"/>
  </g>

  <g transform="translate(568 0)">
    <text x="0" y="260"
      font-family="Inter, SF Pro Display, Segoe UI, Helvetica Neue, Arial, sans-serif"
      font-size="116"
      font-weight="760"
      letter-spacing="0"
      fill="#173A33">Area</text>
    <text x="288" y="260"
      font-family="Inter, SF Pro Display, Segoe UI, Helvetica Neue, Arial, sans-serif"
      font-size="116"
      font-weight="760"
      letter-spacing="0"
      fill="url(#matrixText)">Matrix</text>
    <path d="M6 308H612" stroke="#D6E3DF" stroke-width="10" stroke-linecap="round"/>
    <path d="M6 308H192" stroke="#1AAE98" stroke-width="10" stroke-linecap="round"/>
    <circle cx="234" cy="308" r="10" fill="#F0B64A"/>
    <circle cx="612" cy="308" r="10" fill="#173A33"/>
  </g>
</svg>
