<svg xmlns="http://www.w3.org/2000/svg" viewBox="0 0 1024 1024" role="img" aria-labelledby="title desc">
  <title id="title">AreaMatrix Logo Mark</title>
  <desc id="desc">A local folder, matrix grid, and traceable A-shaped path for AreaMatrix.</desc>
  <defs>
    <linearGradient id="folder" x1="188" y1="218" x2="836" y2="844" gradientUnits="userSpaceOnUse">
      <stop offset="0" stop-color="#173A33"/>
      <stop offset="1" stop-color="#0B201D"/>
    </linearGradient>
    <linearGradient id="path" x1="322" y1="678" x2="596" y2="454" gradientUnits="userSpaceOnUse">
      <stop offset="0" stop-color="#1AAE98"/>
      <stop offset="0.62" stop-color="#38C7B2"/>
      <stop offset="1" stop-color="#F0B64A"/>
    </linearGradient>
    <filter id="softShadow" x="-20%" y="-20%" width="140%" height="150%">
      <feDropShadow dx="0" dy="22" stdDeviation="28" flood-color="#0B201D" flood-opacity="0.16"/>
    </filter>
  </defs>

  <g filter="url(#softShadow)">
    <path
      d="M188 292C188 261.1 213.1 236 244 236H379C399.1 236 418 245 430.8 260.3L475 313H780C810.9 313 836 338.1 836 369V734C836 780.4 798.4 818 752 818H272C225.6 818 188 780.4 188 734V292Z"
      fill="url(#folder)"/>
    <path
      d="M236 402C236 369.4 262.4 343 295 343H765C797.6 343 824 369.4 824 402V734C824 773.8 791.8 806 752 806H272C232.2 806 200 773.8 200 734V438C200 418.1 216.1 402 236 402Z"
      fill="#1E4B43" opacity="0.5"/>
    <rect x="264" y="392" width="496" height="354" rx="58" fill="#F9FCF9"/>

    <g opacity="0.92">
      <path d="M354 640L432 508L504 640L582 508L666 640" fill="none" stroke="#B9CBC5" stroke-width="12" stroke-linecap="round" stroke-linejoin="round"/>
      <path d="M354 640H666" fill="none" stroke="#D6E3DF" stroke-width="10" stroke-linecap="round"/>
      <path d="M432 508H582" fill="none" stroke="#D6E3DF" stroke-width="10" stroke-linecap="round"/>
    </g>

    <g fill="#D7E8E2">
      <rect x="324" y="452" width="50" height="50" rx="14"/>
      <rect x="426" y="452" width="50" height="50" rx="14"/>
      <rect x="528" y="452" width="50" height="50" rx="14"/>
      <rect x="630" y="452" width="50" height="50" rx="14"/>
      <rect x="324" y="560" width="50" height="50" rx="14"/>
      <rect x="630" y="560" width="50" height="50" rx="14"/>
      <rect x="324" y="668" width="50" height="50" rx="14"/>
      <rect x="426" y="668" width="50" height="50" rx="14"/>
      <rect x="528" y="668" width="50" height="50" rx="14"/>
      <rect x="630" y="668" width="50" height="50" rx="14"/>
    </g>

    <path
      d="M338 680L456 478C466.2 460.5 491.8 460.5 502 478L620 680M402 596H556"
      fill="none"
      stroke="url(#path)"
      stroke-width="54"
      stroke-linecap="round"
      stroke-linejoin="round"/>

    <circle cx="456" cy="478" r="31" fill="#F0B64A"/>
    <circle cx="338" cy="680" r="25" fill="#1AAE98"/>
    <circle cx="620" cy="680" r="25" fill="#38C7B2"/>
    <circle cx="556" cy="596" r="19" fill="#173A33"/>
  </g>
</svg>
